<svg class="svg-icon" style="vertical-align: middle;fill: currentColor;overflow: hidden;" viewBox="0 0 1024 1024" version="1.1" xmlns="http://www.w3.org/2000/svg"><path d="M1020.061538 494.276923C927.507692 307.2 734.523077 177.230769 512 177.230769S96.492308 307.2 3.938462 494.276923c-5.907692 11.815385-5.907692 25.6 0 35.446154C96.492308 716.8 289.476923 846.769231 512 846.769231s415.507692-129.969231 508.061538-317.046154c5.907692-11.815385 5.907692-23.630769 0-35.446154zM512 728.615385c-120.123077 0-216.615385-96.492308-216.615385-216.615385s96.492308-216.615385 216.615385-216.615385 216.615385 96.492308 216.615385 216.615385-96.492308 216.615385-216.615385 216.615385z m0-354.461539c-76.8 0-137.846154 61.046154-137.846154 137.846154s61.046154 137.846154 137.846154 137.846154 137.846154-61.046154 137.846154-137.846154-61.046154-137.846154-137.846154-137.846154z"  /></svg>